<?xml version="1.0" encoding="UTF-8" standalone="no"?>
<!DOCTYPE svg PUBLIC "-//W3C//DTD SVG 1.1//EN" "http://www.w3.org/Graphics/SVG/1.1/DTD/svg11.dtd">
<svg width="100%" height="100%" viewBox="0 0 1024 500" version="1.1" xmlns="http://www.w3.org/2000/svg" xmlns:xlink="http://www.w3.org/1999/xlink" xml:space="preserve" style="fill-rule:evenodd;clip-rule:evenodd;stroke-linejoin:round;stroke-miterlimit:1.41421;">
    <g transform="matrix(1,0,0,1,25.1263,-22.3896)">
        <g transform="matrix(1,0,0,1,-50.2648,11.4216)">
            <g opacity="0.173913">
                <g transform="matrix(1,0,0,1,3.8072,-71.3849)">
                    <g transform="matrix(0.73759,0,0,0.67712,165.653,181.627)">
                        <g transform="matrix(0.585187,-0.134011,0.144521,0.63108,361.055,37.717)">
                            <path d="M173.619,206.308C173.619,206.308 82.952,186.308 132.286,127.641C181.619,68.975 184.286,71.641 184.286,71.641C180.401,94.518 180.886,121.508 185.663,98.55C187.589,89.293 219.431,55.958 248.286,64.975C248.286,64.975 210.09,81.862 220.757,123.195C231.423,164.528 211.003,76.061 285.748,72.044C285.748,72.044 241.619,107.641 249.619,144.975C257.619,182.308 240.561,224.743 173.619,206.308Z" style="fill:rgb(255,87,47);"/>
                        </g>
                        <g transform="matrix(0.910426,0.0334059,-0.0357596,0.974572,264.444,-46.9002)">
                            <path d="M307.335,190.259C297.564,200.03 288.38,206.597 279.853,210.747L260.22,395.679L237.764,213.212C219.994,206.011 210.021,190.292 210,190.259L307.335,190.259Z" style="fill:rgb(130,52,0);"/>
                        </g>
                    </g>
                    <g transform="matrix(1,0,0,1,-69.5353,22.7031)">
                        <text x="194.794px" y="392.636px" style="font-family:'Oxygen-Regular', 'Oxygen';font-size:194.669px;fill:rgb(255,87,47);">Lum nat<tspan x="896.856px " y="392.636px ">e</tspan></text>
                    </g>
                </g>
            </g>
        </g>
        <g transform="matrix(1,0,0,1,-56.4515,-67.1018)">
            <g>
                <g>
                    <g transform="matrix(0.73759,0,0,0.67712,165.653,181.627)">
                        <g transform="matrix(0.585187,-0.134011,0.144521,0.63108,361.055,37.717)">
                            <path d="M173.619,206.308C173.619,206.308 82.952,186.308 132.286,127.641C181.619,68.975 184.286,71.641 184.286,71.641C180.401,94.518 180.886,121.508 185.663,98.55C187.589,89.293 219.431,55.958 248.286,64.975C248.286,64.975 210.09,81.862 220.757,123.195C231.423,164.528 211.003,76.061 285.748,72.044C285.748,72.044 241.619,107.641 249.619,144.975C257.619,182.308 240.561,224.743 173.619,206.308Z" style="fill:rgb(255,87,47);"/>
                        </g>
                        <g transform="matrix(0.910426,0.0334059,-0.0357596,0.974572,264.444,-46.9002)">
                            <path d="M307.335,190.259C297.564,200.03 288.38,206.597 279.853,210.747L260.22,395.679L237.764,213.212C219.994,206.011 210.021,190.292 210,190.259L307.335,190.259Z" style="fill:rgb(130,52,0);"/>
                        </g>
                    </g>
                    <g transform="matrix(1,0,0,1,-69.5353,22.7031)">
                        <text x="194.794px" y="392.636px" style="font-family:'Oxygen-Regular', 'Oxygen';font-size:194.669px;fill:rgb(255,87,47);">Lum nat<tspan x="896.856px " y="392.636px ">e</tspan></text>
                    </g>
                </g>
            </g>
        </g>
    </g>
</svg>
