<svg id="Layer_1" data-name="Layer 1" xmlns="http://www.w3.org/2000/svg" viewBox="0 0 413.73 310.44"><defs><style>.cls-1{fill:#00ff18;}.cls-1,.cls-3{stroke:#000;stroke-width:2px;}.cls-1,.cls-3,.cls-4{stroke-miterlimit:10;}.cls-2,.cls-3{fill:#fff;}.cls-4{font-size:55.9px;fill:red;stroke:#020000;stroke-width:3px;font-family:Arial Black;}</style></defs><title>pop-lips</title><path class="cls-1" d="M1,173.6S116.27,81,145.43,156.38c0,0,3.44,6.68,10.53,4.46,0,0,52.86-49.62,91.14,90.13,0,0-54.68,97-153.12,41.11C94,292.08,6.5,271.42,1,173.6Z"/><path d="M146,211.68s1.08-1.92,2.64-4.82c0.79-1.44,1.68-3.15,2.64-5s2-3.78,2.91-5.75,1.9-4,2.7-5.85,1.51-3.68,2-5.25c0.24-.78.45-1.51,0.6-2.16a15.07,15.07,0,0,0,.29-1.7,7,7,0,0,0,0-1.11l0-.39,0,0.39a7.07,7.07,0,0,1,0,1.12,18.07,18.07,0,0,1-.7,3.93,49,49,0,0,1-1.86,5.33c-0.79,1.91-1.7,3.92-2.66,5.9s-2,3.92-3,5.74-2,3.48-2.78,4.9C147.24,209.83,146,211.68,146,211.68Z"/><path d="M185.33,219.78l2.86-1.56c0.86-.47,1.84-1,2.89-1.66s2.16-1.29,3.24-2c0.55-.34,1.09-0.71,1.62-1.06s1-.73,1.53-1.09l1.39-1.06c0.44-.35.83-0.7,1.2-1s0.68-.64,1-0.91a7.83,7.83,0,0,0,.71-0.74l0.6-.66-0.53.72a7.94,7.94,0,0,1-.65.8c-0.27.29-.55,0.65-0.91,1a29.54,29.54,0,0,1-2.52,2.21c-0.49.36-1,.76-1.52,1.12s-1.06.75-1.61,1.1c-1.1.7-2.23,1.36-3.3,2s-2.1,1.1-3,1.53C186.55,219.31,185.33,219.78,185.33,219.78Z"/><path d="M212.07,231.52l2-.72c0.6-.21,1.28-0.48,2-0.76s1.51-.6,2.27-0.95,1.52-.69,2.2-1.07a12.71,12.71,0,0,0,1.8-1.13,5.79,5.79,0,0,0,.66-0.54,2.83,2.83,0,0,0,.46-0.47l0.37-.45-0.29.5a2.92,2.92,0,0,1-.41.54,3.92,3.92,0,0,1-.61.63,7.61,7.61,0,0,1-.8.65,8.3,8.3,0,0,1-1,.64,19.29,19.29,0,0,1-2.22,1.15c-0.78.34-1.57,0.65-2.32,0.9s-1.47.45-2.08,0.62C212.91,231.4,212.07,231.52,212.07,231.52Z"/><path d="M104.32,192.64l0.29-1.16c0.18-.74.4-1.81,0.68-3.08s0.56-2.77.84-4.38,0.54-3.33.76-5,0.39-3.45.47-5.08c0-.81.09-1.6,0.09-2.35s0-1.45,0-2.1l-0.07-1.78c0-.53-0.09-1-0.11-1.37l-0.12-1.19,0.2,1.18c0.06,0.38.16,0.83,0.21,1.36l0.17,1.78c0,0.65.05,1.37,0.08,2.12s0,1.54,0,2.36c-0.06,1.64-.21,3.38-0.41,5.12s-0.51,3.46-.83,5.07-0.68,3.09-1,4.36C104.9,191,104.32,192.64,104.32,192.64Z"/><path d="M70.29,182.11s-0.74-1.31-1.66-3.37c-0.45-1-1-2.25-1.44-3.58s-0.95-2.76-1.32-4.22c-0.2-.73-0.35-1.47-0.5-2.19s-0.25-1.45-.37-2.15-0.13-1.39-.19-2,0-1.26,0-1.83a15.22,15.22,0,0,1,.14-1.54,6.41,6.41,0,0,1,.22-1.17l0.26-1-0.16,1a6.3,6.3,0,0,0-.13,1.17c0,0.46-.07,1,0,1.52s0,1.16.09,1.8,0.14,1.31.25,2,0.21,1.4.39,2.12,0.32,1.45.53,2.16c0.35,1.45.81,2.88,1.25,4.21s0.88,2.57,1.29,3.61C69.7,180.73,70.29,182.11,70.29,182.11Z"/><path d="M41.94,180.89a13.78,13.78,0,0,1-1.54-1.46A21,21,0,0,1,39,177.76a19,19,0,0,1-1.35-2.11,16,16,0,0,1-1-2.28,8.56,8.56,0,0,1-.34-1.1,10.07,10.07,0,0,1-.23-1,8.78,8.78,0,0,1-.17-1.53l0-.58L36,169.72l0.12,0.65c0.07,0.25.15,0.52,0.22,0.83a9.8,9.8,0,0,0,.3,1c0.11,0.34.26,0.69,0.4,1.05s0.32,0.73.49,1.1,0.38,0.74.57,1.1a31,31,0,0,0,2.52,3.84C41.38,180.26,41.94,180.89,41.94,180.89Z"/><path d="M106.35,272l0.59-1.24,1.51-3.29c0.63-1.36,1.32-3,2.06-4.68s1.5-3.56,2.2-5.43c0.37-.93.71-1.86,1-2.78s0.63-1.84.92-2.73,0.53-1.76.78-2.58,0.41-1.61.6-2.33,0.28-1.4.42-2a12.19,12.19,0,0,0,.25-1.55l0.16-1.36-0.08,1.37a12.29,12.29,0,0,1-.15,1.57c-0.1.6-.14,1.3-0.32,2s-0.3,1.54-.53,2.37-0.42,1.72-.72,2.61-0.56,1.83-.9,2.75-0.65,1.88-1,2.81c-0.72,1.87-1.51,3.71-2.27,5.42s-1.54,3.28-2.2,4.63C107.34,270.3,106.35,272,106.35,272Z"/><path d="M169.94,252.18a27.46,27.46,0,0,1,1.16,3.45,36.19,36.19,0,0,1,.79,3.65,38.41,38.41,0,0,1,.44,4.27c0,0.73,0,1.46,0,2.18s-0.06,1.43-.17,2.11a15.35,15.35,0,0,1-.33,2c-0.16.61-.25,1.2-0.44,1.71l-0.49,1.41c-0.17.41-.35,0.76-0.48,1l-0.44.9,0.35-.94c0.11-.3.26-0.65,0.4-1.07l0.39-1.43c0.17-.51.23-1.1,0.36-1.71s0.17-1.26.26-1.93,0.1-1.37.14-2.08,0-1.43,0-2.15a38,38,0,0,0-.37-4.22c-0.18-1.34-.41-2.59-0.64-3.65C170.37,253.57,169.94,252.18,169.94,252.18Z"/><path d="M243.86,255.22s-81-3.65-82.22-5.69-51.84-8.9-66.42-19-88.32-38.89-92.77-51l0.2-5.87s33.85,5.07,55.48,9.06l0.92,0.17c9.26,1.73,16.94,3.43,20,4.74,2.09,0.92,6.25,2.7,11.54,4.93l1.92,0.8,3.09,1.29q1.35,0.58,2.77,1.17c9,3.72,19.78,8,29.48,11.69l1.17,0.44c1.39,0.51,2.75,1,4.06,1.48,10.43,3.79,19,6.44,21.73,6.15,2.28-.22,6.29.22,11.06,1.09l3.18,0.63c11.67,2.41,26.2,6.71,31.52,9.62,0.73,0.41,1.65.9,2.75,1.48,11,5.86,38.42,19.83,41,22.41C247.12,253.59,243.86,255.22,243.86,255.22Z"/><path class="cls-2" d="M92.27,192.29a7.34,7.34,0,0,1-6,3.11,7.1,7.1,0,0,1-2.43-.41l-20.22-7.15a7.23,7.23,0,0,1-4.79-6c9.26,1.73,16.94,3.43,20,4.74,2.09,0.92,6.25,2.7,11.54,4.93Z"/><path class="cls-2" d="M203.07,227.34l-0.15.49a7.31,7.31,0,0,1-6.88,4.84,7.1,7.1,0,0,1-2.43-.41l-20.22-7.15a7.31,7.31,0,0,1-4.59-8.87c11.67,2.41,26.2,6.71,31.52,9.62C201.05,226.27,202,226.75,203.07,227.34Z"/><path class="cls-2" d="M128.77,206.87L127.65,210a7.33,7.33,0,0,1-9.31,4.45L98.1,207.31A7.31,7.31,0,0,1,93.67,198l1.14-3.26a6.35,6.35,0,0,1,.53-1.17q1.35,0.58,2.77,1.17c9,3.72,19.78,8,29.48,11.69Z"/><path class="cls-2" d="M166.2,221.67L165,224.93a7.31,7.31,0,0,1-9.31,4.45l-20.25-7.15a7.32,7.32,0,0,1-4.42-9.31l1.14-3.28a6.34,6.34,0,0,1,.63-1.29c10.43,3.79,19,6.44,21.73,6.15,2.28-.22,6.29.22,11.06,1.09A7.25,7.25,0,0,1,166.2,221.67Z"/><path d="M204.78,251.78a30.2,30.2,0,0,1,1.28,3.08l0.51,1.53c0.16,0.55.36,1.13,0.49,1.74a35.84,35.84,0,0,1,.77,3.86c0.11,0.66.12,1.34,0.19,2s0,1.31,0,1.94-0.09,1.24-.14,1.81l-0.29,1.6c-0.14.49-.29,0.92-0.41,1.31a6,6,0,0,1-.42,1l-0.41.82,0.32-.86a5.91,5.91,0,0,0,.33-1l0.31-1.31,0.21-1.58,0.07-1.78c0-.62,0-1.26-0.07-1.9s-0.1-1.31-.22-2a35.37,35.37,0,0,0-.7-3.82c-0.28-1.21-.57-2.33-0.85-3.29C205.23,253,204.78,251.78,204.78,251.78Z"/><path d="M63,214.92s-0.26.09-.69,0.29c-0.21.1-.47,0.23-0.76,0.39s-0.6.36-.95,0.57a19.09,19.09,0,0,0-2.18,1.69c-0.38.33-.75,0.7-1.12,1.08s-0.73.78-1.06,1.21-0.7.82-1,1.26-0.63.84-.89,1.28l-0.79,1.23-0.64,1.14c-0.42.7-.69,1.32-0.92,1.74l-0.35.67,0.26-.7a19.69,19.69,0,0,1,.75-1.83l0.58-1.2c0.23-.41.47-0.85,0.74-1.29s0.58-.87.88-1.32,0.66-.87,1-1.31,0.75-.81,1.11-1.21,0.78-.75,1.17-1.08a15.63,15.63,0,0,1,2.32-1.61,11.46,11.46,0,0,1,1.82-.81A5.59,5.59,0,0,1,63,214.92Z"/><path d="M22.09,193a8.92,8.92,0,0,0-1,.46,14.77,14.77,0,0,0-2,1.29c-0.35.26-.68,0.54-1,0.8s-0.61.51-.84,0.75l-0.59.55-0.23.21,0.16-.27a6.62,6.62,0,0,1,.46-0.68,8.76,8.76,0,0,1,1.74-1.76,8.18,8.18,0,0,1,1.13-.71,7.36,7.36,0,0,1,1.08-.44A4,4,0,0,1,22.09,193Z"/><ellipse class="cls-3" cx="259.2" cy="224.49" rx="7.85" ry="8.06"/><ellipse class="cls-3" cx="269.99" cy="188.38" rx="14.19" ry="14.56"/><ellipse class="cls-3" cx="263.1" cy="82.64" rx="70.96" ry="72.8"/><text class="cls-4" transform="translate(189.13 121.89) rotate(-42.48)">w</text><text class="cls-4" transform="translate(224.42 87.61) rotate(-12.7)">O</text><text class="cls-4" transform="matrix(0.92, 0.4, -0.4, 0.92, 265.32, 77.66)">R</text><text class="cls-4" transform="translate(313.34 99.08) rotate(4.3)">K</text><text class="cls-4" transform="translate(372.36 98.19) rotate(-24.47)">!</text></svg>