<svg id="Layer_1" data-name="Layer 1" xmlns="http://www.w3.org/2000/svg" viewBox="0 0 242.5 184"><defs><style>.cls-1{fill:#fff;}.cls-2{fill:#0a0a0a;}.cls-3{fill:#e22000;}.cls-4{font-size:48px;fill:#0094df;stroke:#000;stroke-miterlimit:10;stroke-width:3px;font-family:Arial Black;}</style></defs><title>next</title><path class="cls-1" d="M84.67,168.17S42.5,125.46,0,126c0,0,78-38,66.5-76.59,0,0,23.5,9.11,32-9.91,0,0,21.5,9,32-34.5,0,0,43.5,47.67,73,8,0,0-17.5,35.33,5.5,21.2l5,81.52L141,151a75.6,75.6,0,0,0-24.5,22.46S104.67,143.71,84.67,168.17Z"/><path class="cls-2" d="M26,184s92.5-92.5,133.5,0c0,0-7-78.5,83-11,0,0-27.5-62-6-129,0,0-46.5,66.5-89-34,0,0-42.5,108-124,62.5,0,0,22.5,27,15.5,61Z"/><path class="cls-3" d="M24,174s92.5-92.5,133.5,0c0,0-7-78.5,83-11,0,0-27.5-62-6-129,0,0-46.5,66.5-89-34,0,0-42.5,108-124,62.5,0,0,22.5,27,15.5,61Z"/><text class="cls-4" transform="translate(64.71 142.78) rotate(-29.46)">N</text><text class="cls-4" transform="translate(98.9 123.54) rotate(-23.95)">E</text><text class="cls-4" transform="translate(129.61 109.61) rotate(-17.04)">X</text><text class="cls-4" transform="matrix(0.99, -0.11, 0.11, 0.99, 163.89, 98.81)">T</text><text class="cls-4" transform="translate(196.78 95.72) rotate(5.13)">!</text></svg>