<svg id="Layer_1" data-name="Layer 1" xmlns="http://www.w3.org/2000/svg" viewBox="0 0 242.5 184"><defs><style>.cls-1{fill:#fff;}.cls-2{fill:#0a0a0a;}.cls-3{fill:#e22000;}.cls-4{font-size:48px;fill:#0094df;stroke:#000;stroke-miterlimit:10;stroke-width:3px;font-family:Arial Black;}</style></defs><title>prev</title><path class="cls-1" d="M84.67,168.17S42.5,125.46,0,126c0,0,78-38,66.5-76.59,0,0,23.5,9.11,32-9.91,0,0,21.5,9,32-34.5,0,0,43.5,47.67,73,8,0,0-17.5,35.33,5.5,21.2l5,81.52L141,151a75.6,75.6,0,0,0-24.5,22.46S104.67,143.71,84.67,168.17Z"/><path class="cls-2" d="M26,184s92.5-92.5,133.5,0c0,0-7-78.5,83-11,0,0-27.5-62-6-129,0,0-46.5,66.5-89-34,0,0-42.5,108-124,62.5,0,0,22.5,27,15.5,61Z"/><path class="cls-3" d="M24,174s92.5-92.5,133.5,0c0,0-7-78.5,83-11,0,0-27.5-62-6-129,0,0-46.5,66.5-89-34,0,0-42.5,108-124,62.5,0,0,22.5,27,15.5,61Z"/><text class="cls-4" transform="translate(64.82 142.87) rotate(-29.84)">P</text><text class="cls-4" transform="translate(94.2 125.88) rotate(-24.58)">R</text><text class="cls-4" transform="translate(127.29 110.64) rotate(-17.94)">E</text><text class="cls-4" transform="translate(158.87 99.9) rotate(-7.9)">V</text><text class="cls-4" transform="translate(194.32 95.73) rotate(3.7)">!</text></svg>