<svg id="Layer_1" data-name="Layer 1" xmlns="http://www.w3.org/2000/svg" viewBox="0 0 242.5 184"><defs><style>.cls-1{fill:#fff;}.cls-2{fill:#0a0a0a;}.cls-3{fill:#e22000;}.cls-4{font-size:41px;fill:#0094df;stroke:#000;stroke-miterlimit:10;stroke-width:3px;font-family:Arial Black;}</style></defs><title>start</title><path class="cls-1" d="M84.67,168.17S42.5,125.46,0,126c0,0,78-38,66.5-76.59,0,0,23.5,9.11,32-9.91,0,0,21.5,9,32-34.5,0,0,43.5,47.67,73,8,0,0-17.5,35.33,5.5,21.2l5,81.52L141,151a75.6,75.6,0,0,0-24.5,22.46S104.67,143.71,84.67,168.17Z"/><path class="cls-2" d="M26,184s92.5-92.5,133.5,0c0,0-7-78.5,83-11,0,0-27.5-62-6-129,0,0-46.5,66.5-89-34,0,0-42.5,108-124,62.5,0,0,22.5,27,15.5,61Z"/><path class="cls-3" d="M24,174s92.5-92.5,133.5,0c0,0-7-78.5,83-11,0,0-27.5-62-6-129,0,0-46.5,66.5-89-34,0,0-42.5,108-124,62.5,0,0,22.5,27,15.5,61Z"/><text class="cls-4" transform="translate(64.98 142.89) rotate(-30.2)">S</text><text class="cls-4" transform="translate(90.12 128.23) rotate(-25.92)">T</text><text class="cls-4" transform="matrix(0.93, -0.36, 0.36, 0.93, 113.66, 116.55)">A</text><text class="cls-4" transform="matrix(0.97, -0.25, 0.25, 0.97, 142.55, 105.1)">R</text><text class="cls-4" transform="translate(171.96 97.4) rotate(-4.1)">T</text><text class="cls-4" transform="translate(200.25 95.89) rotate(6.52)">!</text></svg>